# xmcd CD database file
# Copyright (C) 1995 Ti Kan
#
# Track frame offsets:
#	150
#	8337
#	39215
#	63162
#	83220
#	108302
#	133815
#	158112
#	193242
#	218462
#	243560
#
# Disc length: 3661 seconds
#
# Revision: 1
# Processed by: cddbd v1.4b41PL1 Copyright (c) Steve Scherf et al.
# Submitted via: NotifyCDPlayer(CDDB) 1.60beta5_freedb
#
DISCID=850e4b0b
DTITLE=Jeff Tamelier - Strat got yo' Tongue
DYEAR=1900
DGENRE=
TTITLE0=Little Italy
TTITLE1=The good, the Bad and the Funky
TTITLE2=Strat got yo' tongue
TTITLE3=that's just the way it goes
TTITLE4=Scarecrow
TTITLE5=E and J 4 Way
TTITLE6=Grease Release
TTITLE7=I'm Only Happy When I'm Hurtin'
TTITLE8=East of the caldecott
TTITLE9=Rap Stew
TTITLE10=Samantha
EXTD=
EXTT0=
EXTT1=
EXTT2=
EXTT3=
EXTT4=
EXTT5=
EXTT6=
EXTT7=
EXTT8=
EXTT9=
EXTT10=
PLAYORDER=
